<svg width="70" height="48" viewBox="0 0 70 48" fill="none" xmlns="http://www.w3.org/2000/svg">
<rect x="0.448217" y="0.413793" width="68.6897" height="47.1724" rx="2.89655" fill="white" stroke="#F3F3F3" stroke-width="0.827586"/>
<path fill-rule="evenodd" clip-rule="evenodd" d="M21.1024 17.9119C20.5967 18.5176 19.7877 18.9954 18.9787 18.9271C18.8775 18.1082 19.2736 17.238 19.7371 16.7006C20.2428 16.0778 21.1277 15.6342 21.844 15.6001C21.9283 16.4532 21.5996 17.2892 21.1024 17.9119ZM21.8354 19.0891C21.1226 19.0476 20.4723 19.3061 19.9469 19.5149C19.6089 19.6492 19.3226 19.763 19.1049 19.763C18.8605 19.763 18.5624 19.6432 18.2277 19.5086C17.7892 19.3322 17.2878 19.1306 16.762 19.1403C15.5569 19.1573 14.436 19.8483 13.8208 20.9488C12.5567 23.1498 13.4922 26.4085 14.7141 28.2C15.3125 29.0872 16.0288 30.0597 16.9727 30.0256C17.388 30.0097 17.6867 29.8814 17.9958 29.7486C18.3517 29.5958 18.7214 29.437 19.2987 29.437C19.856 29.437 20.2095 29.5916 20.5489 29.7401C20.8716 29.8813 21.1815 30.0168 21.6415 30.0085C22.6191 29.9915 23.2343 29.1213 23.8327 28.2341C24.4784 27.2819 24.7621 26.3526 24.8052 26.2116L24.8102 26.1953C24.8092 26.1942 24.8012 26.1905 24.7872 26.184C24.5713 26.084 22.9215 25.3194 22.9056 23.2692C22.8898 21.5483 24.2142 20.6765 24.4228 20.5392L24.4228 20.5392L24.4229 20.5391C24.4355 20.5308 24.444 20.5252 24.4479 20.5223C23.6051 19.2597 22.2904 19.1232 21.8354 19.0891ZM28.6027 29.915V16.6155H33.5328C36.0779 16.6155 37.8561 18.3899 37.8561 20.9832C37.8561 23.5766 36.0442 25.3681 33.4654 25.3681H30.6422V29.915H28.6027ZM30.6421 18.3558H32.9934C34.7631 18.3558 35.7744 19.3113 35.7744 20.9919C35.7744 22.6724 34.7631 23.6364 32.9849 23.6364H30.6421V18.3558ZM44.5894 28.3196C44.0501 29.3604 42.8618 30.0172 41.5808 30.0172C39.6846 30.0172 38.3615 28.8741 38.3615 27.1509C38.3615 25.4447 39.6425 24.4637 42.0106 24.3187L44.5557 24.1651V23.4314C44.5557 22.348 43.8562 21.7594 42.609 21.7594C41.5808 21.7594 40.8308 22.2969 40.6791 23.1158H38.8419C38.9009 21.3926 40.5021 20.1386 42.6679 20.1386C45.0024 20.1386 46.5193 21.3755 46.5193 23.295V29.9149H44.6315V28.3196H44.5894ZM42.1286 28.439C41.0415 28.439 40.3504 27.9101 40.3504 27.0997C40.3504 26.2637 41.0162 25.7774 42.2888 25.7006L44.5558 25.5556V26.3063C44.5558 27.5518 43.5107 28.439 42.1286 28.439ZM52.7809 30.4353C51.9634 32.7643 51.028 33.532 49.0391 33.532C48.8874 33.532 48.3817 33.515 48.2638 33.4808V31.8856C48.3902 31.9026 48.702 31.9197 48.8621 31.9197C49.7638 31.9197 50.2695 31.5358 50.5813 30.5377L50.7667 29.9491L47.3114 20.2666H49.4436L51.8454 28.1235H51.8876L54.2894 20.2666H56.3625L52.7809 30.4353Z" fill="black"/>
</svg>
