<svg width="17" height="15" viewBox="0 0 17 15" fill="none" xmlns="http://www.w3.org/2000/svg">
<path fill-rule="evenodd" clip-rule="evenodd" d="M1.17115 1.72115C1.92126 0.971268 2.93849 0.550007 3.99915 0.550007C5.0598 0.550007 6.07703 0.971268 6.82715 1.72115L7.99915 2.89215L9.17115 1.72115C9.54013 1.33911 9.98151 1.03438 10.4695 0.824747C10.9575 0.615111 11.4824 0.504766 12.0135 0.500151C12.5447 0.495536 13.0714 0.596743 13.563 0.797866C14.0545 0.99899 14.5012 1.296 14.8767 1.67157C15.2523 2.04714 15.5493 2.49375 15.7504 2.98534C15.9516 3.47692 16.0528 4.00364 16.0481 4.53476C16.0435 5.06588 15.9332 5.59075 15.7236 6.07877C15.5139 6.56679 15.2092 7.00817 14.8271 7.37715L7.99915 14.2062L1.17115 7.37715C0.421261 6.62704 0 5.60981 0 4.54915C0 3.4885 0.421261 2.47126 1.17115 1.72115Z" fill="white"/>
</svg>
