<svg width="20" height="21" viewBox="0 0 20 21" fill="none" xmlns="http://www.w3.org/2000/svg">
<g clip-path="url(#clip0_4818_9870)">
<path d="M10 20.5001C15.5228 20.5001 20 16.0229 20 10.5001C20 4.97721 15.5228 0.500061 10 0.500061C4.47715 0.500061 0 4.97721 0 10.5001C0 16.0229 4.47715 20.5001 10 20.5001Z" fill="#3C5A9A"/>
<path d="M13.2516 3.56946H11.0364C9.72179 3.56946 8.25958 4.12236 8.25958 6.02793C8.266 6.6919 8.25958 7.32779 8.25958 8.04345H6.73877V10.4635H8.30665V17.4305H11.1877V10.4175H13.0893L13.2614 8.03666H11.1381C11.1381 8.03666 11.1428 6.97754 11.1381 6.66997C11.1381 5.91693 11.9216 5.96005 11.9688 5.96005C12.3416 5.96005 13.0666 5.96114 13.2527 5.96005V3.56946H13.2516Z" fill="white"/>
</g>
<defs>
<clipPath id="clip0_4818_9870">
<rect width="20" height="20" fill="white" transform="translate(0 0.5)"/>
</clipPath>
</defs>
</svg>
