<svg width="53" height="52" viewBox="0 0 53 52" fill="none" xmlns="http://www.w3.org/2000/svg">
<path d="M26.2864 13.6797C26.2864 20.3459 20.8823 25.75 14.2161 25.75H2.14575V13.6797C2.14575 7.01343 7.54981 1.60938 14.2161 1.60938C20.8823 1.60938 26.2864 7.01343 26.2864 13.6797Z" fill="#749B3F"/>
<path d="M26.2864 37.8203C26.2864 31.1541 31.6904 25.75 38.3567 25.75H50.427V37.8203C50.427 44.4866 45.0229 49.8906 38.3567 49.8906C31.6904 49.8906 26.2864 44.4866 26.2864 37.8203Z" fill="#749B3F"/>
<path d="M2.14575 37.8203C2.14575 44.4866 7.54981 49.8906 14.2161 49.8906H26.2864V37.8203C26.2864 31.1541 20.8823 25.75 14.2161 25.75C7.54981 25.75 2.14575 31.1541 2.14575 37.8203Z" fill="#749B3F"/>
<path d="M50.427 13.6797C50.427 7.01343 45.0229 1.60938 38.3567 1.60938H26.2864V13.6797C26.2864 20.3459 31.6904 25.75 38.3567 25.75C45.0229 25.75 50.427 20.3459 50.427 13.6797Z" fill="#749B3F"/>
</svg>
