<svg width="71" height="48" viewBox="0 0 71 48" fill="none" xmlns="http://www.w3.org/2000/svg">
<rect x="0.931127" y="0.413793" width="68.6897" height="47.1724" rx="2.89655" fill="white" stroke="#F3F3F3" stroke-width="0.827586"/>
<path fill-rule="evenodd" clip-rule="evenodd" d="M32.2061 24.3075L32.5087 22.3774L31.8346 22.3616H28.6152L30.8526 8.11816C30.8595 8.07503 30.8821 8.03499 30.915 8.00651C30.948 7.97803 30.9902 7.9624 31.0343 7.9624H36.4625C38.2648 7.9624 39.5084 8.33886 40.1576 9.08201C40.4621 9.43064 40.6559 9.79506 40.7498 10.1959C40.8482 10.6167 40.8498 11.1193 40.7538 11.7324L40.7469 11.777V12.1699L41.0513 12.343C41.3076 12.4796 41.5113 12.6358 41.6676 12.8147C41.9279 13.1129 42.0964 13.4918 42.1675 13.9408C42.2411 14.4027 42.2168 14.9525 42.0964 15.5749C41.9574 16.2907 41.7329 16.9142 41.4296 17.4243C41.1508 17.8944 40.7955 18.2843 40.3736 18.5864C39.9707 18.8735 39.4922 19.0915 38.9511 19.2309C38.4267 19.368 37.8289 19.4372 37.1732 19.4372H36.7508C36.4488 19.4372 36.1554 19.5464 35.925 19.7422C35.694 19.942 35.5413 20.2151 35.4945 20.5138L35.4625 20.6876L34.9278 24.0898L34.9036 24.2146C34.8971 24.2541 34.8861 24.2738 34.8699 24.2872C34.8555 24.2994 34.8347 24.3075 34.8145 24.3075H32.2061Z" fill="#28356A"/>
<path fill-rule="evenodd" clip-rule="evenodd" d="M41.3396 11.8223C41.3236 11.9263 41.3049 12.0325 41.2842 12.1418C40.5683 15.8321 38.1191 17.107 34.9912 17.107H33.3986C33.016 17.107 32.6936 17.3858 32.6341 17.7647L31.5878 24.4288C31.549 24.6777 31.74 24.9018 31.9899 24.9018H34.8147C35.1491 24.9018 35.4333 24.6578 35.486 24.3266L35.5137 24.1826L36.0456 20.7938L36.0798 20.6079C36.1318 20.2756 36.4166 20.0314 36.751 20.0314H37.1735C39.9102 20.0314 42.0527 18.9159 42.6789 15.6874C42.9404 14.3388 42.805 13.2127 42.1128 12.4207C41.9034 12.182 41.6436 11.9837 41.3396 11.8223Z" fill="#298FC2"/>
<path fill-rule="evenodd" clip-rule="evenodd" d="M40.5908 11.5226C40.4813 11.4906 40.3685 11.4616 40.2528 11.4354C40.1364 11.4098 40.0172 11.3872 39.8945 11.3673C39.4651 11.2977 38.9946 11.2646 38.4906 11.2646H34.2359C34.131 11.2646 34.0315 11.2884 33.9425 11.3314C33.7462 11.4261 33.6005 11.6126 33.5651 11.841L32.66 17.5971L32.634 17.7649C32.6935 17.386 33.0159 17.1072 33.3985 17.1072H34.9911C38.119 17.1072 40.5682 15.8316 41.2841 12.1419C41.3055 12.0327 41.3235 11.9264 41.3395 11.8224C41.1584 11.7259 40.9623 11.6434 40.7511 11.5731C40.6989 11.5557 40.6451 11.5389 40.5908 11.5226Z" fill="#22284F"/>
<path fill-rule="evenodd" clip-rule="evenodd" d="M33.5655 11.8403C33.6008 11.6119 33.7465 11.4254 33.9428 11.3313C34.0325 11.2882 34.1314 11.2644 34.2362 11.2644H38.4909C38.9949 11.2644 39.4654 11.2976 39.8949 11.3673C40.0176 11.387 40.1367 11.4098 40.2531 11.4353C40.3688 11.4614 40.4817 11.4905 40.5911 11.5224C40.6454 11.5387 40.6992 11.5556 40.7519 11.5724C40.9631 11.6427 41.1594 11.7258 41.3405 11.8217C41.5535 10.458 41.3387 9.52942 40.6044 8.68862C39.7947 7.76285 38.3335 7.3667 36.4637 7.3667H31.0352C30.6533 7.3667 30.3275 7.6455 30.2685 8.02505L28.0075 22.415C27.9629 22.6996 28.1816 22.9565 28.4675 22.9565H31.8188L33.5655 11.8403Z" fill="#28356A"/>
<path fill-rule="evenodd" clip-rule="evenodd" d="M16.2122 28.2251H12.2544C11.9835 28.2251 11.7532 28.4227 11.7108 28.6912L10.1101 38.8812C10.0783 39.0823 10.2335 39.2635 10.4366 39.2635H12.326C12.5969 39.2635 12.8272 39.0661 12.8695 38.797L13.3012 36.0485C13.3429 35.7795 13.5737 35.5819 13.8441 35.5819H15.097C17.704 35.5819 19.2087 34.3152 19.6018 31.8051C19.7788 30.7068 19.6092 29.844 19.097 29.2397C18.5345 28.5762 17.5368 28.2251 16.2122 28.2251ZM16.6686 31.9465C16.4522 33.3724 15.3671 33.3724 14.318 33.3724H13.7207L14.1397 30.7093C14.1646 30.5484 14.3034 30.4299 14.4655 30.4299H14.7393C15.454 30.4299 16.1282 30.4299 16.4765 30.8389C16.6843 31.0829 16.7479 31.4455 16.6686 31.9465Z" fill="#28356A"/>
<path fill-rule="evenodd" clip-rule="evenodd" d="M28.144 31.8236H26.2487C26.0872 31.8236 25.9477 31.9421 25.9229 32.103L25.8389 32.6352L25.7065 32.4424C25.2962 31.8444 24.3811 31.6445 23.468 31.6445C21.3735 31.6445 19.5847 33.2373 19.2364 35.4715C19.0553 36.5859 19.3127 37.6516 19.9425 38.3948C20.52 39.078 21.3464 39.3628 22.3296 39.3628C24.0172 39.3628 24.9529 38.2733 24.9529 38.2733L24.8684 38.8021C24.8366 39.0043 24.9918 39.1856 25.1937 39.1856H26.9008C27.1723 39.1856 27.4016 38.988 27.4443 38.719L28.4687 32.2059C28.5011 32.0054 28.3464 31.8236 28.144 31.8236ZM25.5023 35.5274C25.3194 36.6144 24.4601 37.3442 23.364 37.3442C22.8137 37.3442 22.3739 37.167 22.0913 36.8312C21.8112 36.4977 21.7049 36.023 21.7939 35.4942C21.9647 34.4164 22.8385 33.6626 23.9179 33.6626C24.4561 33.6626 24.8936 33.8423 25.1818 34.1809C25.4705 34.5231 25.5851 35.0008 25.5023 35.5274Z" fill="#28356A"/>
<path fill-rule="evenodd" clip-rule="evenodd" d="M38.0922 31.9868H36.1875C36.0058 31.9868 35.8351 32.0775 35.7322 32.2292L33.1053 36.114L31.9919 32.3807C31.9218 32.1471 31.7072 31.9868 31.4641 31.9868H29.5926C29.365 31.9868 29.2071 32.21 29.2794 32.425L31.3773 38.6062L29.4051 41.4017C29.2499 41.6219 29.4062 41.9246 29.6741 41.9246H31.5764C31.757 41.9246 31.9259 41.8363 32.0283 41.6877L38.3629 32.5068C38.5147 32.2873 38.3589 31.9868 38.0922 31.9868Z" fill="#28356A"/>
<path fill-rule="evenodd" clip-rule="evenodd" d="M44.4416 28.2251H40.4832C40.213 28.2251 39.9826 28.4227 39.9403 28.6912L38.3396 38.8812C38.3078 39.0823 38.4629 39.2635 38.6649 39.2635H40.6962C40.8847 39.2635 41.0462 39.1253 41.0757 38.937L41.5301 36.0485C41.5717 35.7795 41.8027 35.5819 42.0729 35.5819H43.3253C45.9329 35.5819 47.437 34.3152 47.8306 31.8051C48.0083 30.7068 47.8376 29.844 47.3253 29.2397C46.7633 28.5762 45.7663 28.2251 44.4416 28.2251ZM44.8981 31.9465C44.6822 33.3724 43.5971 33.3724 42.5473 33.3724H41.9508L42.3703 30.7093C42.3951 30.5484 42.5329 30.4299 42.6955 30.4299H42.9692C43.6833 30.4299 44.3581 30.4299 44.7065 30.8389C44.9143 31.0829 44.9774 31.4455 44.8981 31.9465Z" fill="#298FC2"/>
<path fill-rule="evenodd" clip-rule="evenodd" d="M56.3709 31.8236H54.4768C54.3142 31.8236 54.1759 31.9421 54.1516 32.103L54.0676 32.6352L53.9345 32.4424C53.5243 31.8444 52.6099 31.6445 51.6966 31.6445C49.6022 31.6445 47.8141 33.2373 47.4657 35.4715C47.2852 36.5859 47.5414 37.6516 48.171 38.3948C48.7499 39.078 49.575 39.3628 50.5583 39.3628C52.2458 39.3628 53.1816 38.2733 53.1816 38.2733L53.0971 38.8021C53.0654 39.0043 53.2203 39.1856 53.4236 39.1856H55.1302C55.4004 39.1856 55.6308 38.988 55.6731 38.719L56.6979 32.2059C56.7292 32.0054 56.574 31.8236 56.3709 31.8236ZM53.7288 35.5274C53.5471 36.6144 52.6865 37.3442 51.5904 37.3442C51.0412 37.3442 50.6003 37.167 50.3177 36.8312C50.0378 36.4977 49.9324 36.023 50.0203 35.4942C50.1923 34.4164 51.0648 33.6626 52.1443 33.6626C52.6824 33.6626 53.12 33.8423 53.4082 34.1809C53.698 34.5231 53.8126 35.0008 53.7288 35.5274Z" fill="#298FC2"/>
<path fill-rule="evenodd" clip-rule="evenodd" d="M58.4472 28.5052L56.8227 38.8817C56.791 39.0828 56.9459 39.264 57.1479 39.264H58.7811C59.0526 39.264 59.2828 39.0666 59.3245 38.7975L60.9263 28.6081C60.9583 28.4069 60.8031 28.2251 60.6012 28.2251H58.7725C58.611 28.2256 58.4721 28.3442 58.4472 28.5052Z" fill="#298FC2"/>
</svg>
