<svg width="18" height="18" viewBox="0 0 18 18" fill="none" xmlns="http://www.w3.org/2000/svg">
    <path
        d="M7.10244 11.46C6.95994 11.46 6.81744 11.4075 6.70494 11.295C6.08994 10.68 5.75244 9.8625 5.75244 9C5.75244 7.2075 7.20744 5.7525 8.99994 5.7525C9.86244 5.7525 10.6799 6.09 11.2949 6.705C11.3999 6.81 11.4599 6.9525 11.4599 7.1025C11.4599 7.2525 11.3999 7.395 11.2949 7.5L7.49994 11.295C7.38744 11.4075 7.24494 11.46 7.10244 11.46ZM8.99994 6.8775C7.82994 6.8775 6.87744 7.83 6.87744 9C6.87744 9.375 6.97494 9.735 7.15494 10.05L10.0499 7.155C9.73494 6.975 9.37494 6.8775 8.99994 6.8775Z"
        fill="#171717" />
    <path
        d="M4.2 13.8825C4.0725 13.8825 3.9375 13.8375 3.8325 13.7475C3.03 13.065 2.31 12.225 1.695 11.25C0.900005 10.0125 0.900005 7.99499 1.695 6.74999C3.525 3.88499 6.1875 2.23499 9 2.23499C10.65 2.23499 12.2775 2.80499 13.7025 3.87749C13.95 4.06499 14.0025 4.41749 13.815 4.66499C13.6275 4.91249 13.275 4.96499 13.0275 4.77749C11.7975 3.84749 10.4025 3.35999 9 3.35999C6.5775 3.35999 4.26 4.81499 2.64 7.35749C2.0775 8.23499 2.0775 9.76499 2.64 10.6425C3.2025 11.52 3.8475 12.2775 4.56 12.8925C4.7925 13.095 4.8225 13.4475 4.62 13.6875C4.515 13.815 4.3575 13.8825 4.2 13.8825Z"
        fill="#171717" />
    <path
        d="M9.00005 15.765C8.00255 15.765 7.02755 15.5625 6.09005 15.165C5.80505 15.045 5.67005 14.715 5.79005 14.43C5.91005 14.145 6.24005 14.01 6.52505 14.13C7.32005 14.4675 8.15255 14.64 8.99255 14.64C11.415 14.64 13.7325 13.185 15.3525 10.6425C15.915 9.765 15.915 8.235 15.3525 7.3575C15.12 6.99 14.865 6.6375 14.595 6.3075C14.4 6.0675 14.4375 5.715 14.6775 5.5125C14.9175 5.3175 15.27 5.3475 15.4725 5.595C15.765 5.955 16.05 6.345 16.305 6.75C17.1 7.9875 17.1 10.005 16.305 11.25C14.475 14.115 11.8125 15.765 9.00005 15.765Z"
        fill="#171717" />
    <path
        d="M9.51756 12.2025C9.25506 12.2025 9.01506 12.015 8.96256 11.745C8.90256 11.4375 9.10506 11.145 9.41256 11.0925C10.2376 10.9425 10.9276 10.2525 11.0776 9.42751C11.1376 9.12001 11.4301 8.92501 11.7376 8.97751C12.0451 9.03751 12.2476 9.33002 12.1876 9.63752C11.9476 10.935 10.9126 11.9625 9.62256 12.2025C9.58506 12.195 9.55506 12.2025 9.51756 12.2025Z"
        fill="#171717" />
    <path d="M1.49996 17.0625C1.35746 17.0625 1.21496 17.01 1.10246 16.8975C0.884956 16.68
    0.884956 16.32 1.10246 16.1025L6.70496 10.5C6.92246 10.2825 7.28246 10.2825 7.49996 10.5C7.71746
    10.7175 7.71746 11.0775 7.49996 11.295L1.89746 16.8975C1.78496 17.01 1.64246 17.0625 1.49996
    17.0625Z" fill="#171717"/>
<path d="M10.8975 7.66499C10.755 7.66499 10.6125 7.61249 10.5 7.49999C10.2825 7.28249 10.2825
    6.92249 10.5 6.70499L16.1025 1.10249C16.32 0.884987 16.68 0.884987 16.8975 1.10249C17.115
    1.31999 17.115 1.67999 16.8975 1.89749L11.295 7.49999C11.1825 7.61249 11.04 7.66499 10.8975
    7.66499Z" fill="#171717"/>
</svg>