<svg width="70" height="48" viewBox="0 0 70 48" fill="none" xmlns="http://www.w3.org/2000/svg">
<rect x="0.413793" y="0.413793" width="68.6897" height="47.1724" rx="2.89655" fill="white" stroke="#F3F3F3" stroke-width="0.827586"/>
<path d="M30.8653 32.92H26.2371L29.1319 16.1191H33.7599L30.8653 32.92Z" fill="#15195A"/>
<path d="M47.6431 16.5297C46.7302 16.1898 45.2822 15.8145 43.4919 15.8145C38.9213 15.8145 35.7028 18.1021 35.683 21.3728C35.645 23.7859 37.9874 25.1261 39.7393 25.9307C41.5299 26.7529 42.1386 27.2896 42.1386 28.0224C42.1204 29.1479 40.6917 29.6668 39.3592 29.6668C37.5113 29.6668 36.5212 29.3993 35.0166 28.7731L34.4072 28.5047L33.7595 32.2761C34.845 32.7403 36.845 33.1522 38.9213 33.1702C43.7776 33.1702 46.9392 30.918 46.9767 27.4326C46.9952 25.52 45.7583 24.0545 43.0917 22.857C41.473 22.0883 40.4816 21.5699 40.4816 20.7834C40.5006 20.0684 41.3201 19.336 43.1474 19.336C44.652 19.3001 45.7575 19.6396 46.595 19.9793L47.0136 20.1577L47.6431 16.5297V16.5297V16.5297Z" fill="#15195A"/>
<path fill-rule="evenodd" clip-rule="evenodd" d="M55.9278 16.1191H59.5078L63.2416 32.9198H58.9563C58.9563 32.9198 58.5369 30.9894 58.404 30.3995H52.4617C52.2899 30.8461 51.4903 32.9198 51.4903 32.9198H46.634L53.5087 17.5131C53.9851 16.4227 54.8238 16.1191 55.9278 16.1191ZM55.6425 22.267C55.6425 22.267 54.1759 26.0026 53.7947 26.9678H57.6417C57.4514 26.1278 56.5749 22.1062 56.5749 22.1062L56.2515 20.6585C56.1153 21.0313 55.9183 21.5438 55.7854 21.8895C55.6954 22.1238 55.6348 22.2815 55.6425 22.267Z" fill="#15195A"/>
<path fill-rule="evenodd" clip-rule="evenodd" d="M17.8389 27.5757L22.3715 16.1191H27.2655L19.9907 32.9022H15.0964L10.9713 18.3041C9.54796 17.523 7.92347 16.8948 6.10718 16.4588L6.18336 16.1193H13.6298C14.6391 16.1547 15.4581 16.4586 15.7246 17.5316L17.3424 25.2484C17.3428 25.2496 17.3432 25.2509 17.3436 25.2522L17.8389 27.5757Z" fill="#15195A"/>
</svg>
